<?xml version="1.0" standalone="no"?>
<!DOCTYPE svg PUBLIC "-//W3C//DTD SVG 20010904//EN"
 "http://www.w3.org/TR/2001/REC-SVG-20010904/DTD/svg10.dtd">
<svg version="1.0" xmlns="http://www.w3.org/2000/svg"
 width="512.000000pt" height="512.000000pt" viewBox="0 0 512.000000 512.000000"
 preserveAspectRatio="xMidYMid meet">

<g transform="translate(0.000000,512.000000) scale(0.100000,-0.100000)"
fill="#000000" stroke="none">
<path d="M1292 4483 c-7 -3 -19 -18 -28 -35 -22 -42 -10 -85 29 -109 31 -18
66 -19 1244 -19 l1212 0 3 -539 3 -539 24 -26 c34 -36 88 -36 122 0 l24 26 0
598 0 598 -24 26 -24 26 -1286 -1 c-707 0 -1292 -3 -1299 -6z"/>
<path d="M1109 4181 l-29 -29 0 -396 0 -395 -231 -3 -231 -3 -24 -28 -24 -29
2 -1206 3 -1207 23 -56 c66 -164 205 -278 377 -310 30 -5 761 -8 1817 -7
l1767 3 23 23 23 23 0 1137 0 1137 -28 57 c-30 62 -83 115 -149 150 -43 23
-46 23 -415 23 l-373 0 0 537 c0 372 -3 545 -11 561 -6 14 -22 30 -36 36 -17
8 -370 11 -1239 11 l-1216 0 -29 -29z m2361 -658 l-1 -518 -52 -32 -52 -31 -5
461 c-4 347 -8 468 -18 484 -7 13 -29 27 -51 33 -27 7 -336 10 -955 8 l-914
-3 -26 -24 -26 -24 -2 -1396 -3 -1396 -57 -3 -58 -3 0 1481 0 1480 1110 0
1110 0 0 -517z m-280 -180 l-1 -408 -20 24 c-11 14 -83 115 -161 225 -175 249
-181 256 -228 256 -27 0 -43 -7 -61 -27 -14 -16 -104 -151 -199 -301 -139
-221 -175 -271 -185 -260 -6 7 -42 61 -79 120 -70 111 -95 131 -145 119 -29
-8 -50 -29 -301 -310 -113 -126 -212 -231 -220 -234 -8 -3 -23 -8 -32 -12 -17
-7 -18 26 -18 604 l0 611 825 0 825 0 0 -407z m-223 -396 l171 -242 -30 -31
c-16 -18 -51 -43 -77 -58 -84 -45 -149 -56 -338 -56 l-172 0 -36 55 c-19 31
-35 58 -35 60 0 6 306 492 323 513 5 7 13 10 16 6 3 -3 83 -114 178 -247z
m-1887 -868 l0 -1111 29 -29 c29 -28 32 -29 136 -29 106 0 106 0 100 -22 -20
-66 -97 -147 -169 -178 -167 -74 -369 19 -421 193 -13 44 -15 207 -15 1169 l0
1118 170 0 170 0 0 -1111z m3274 807 c18 -7 44 -29 57 -47 l24 -34 3 -1063 2
-1063 -131 3 -132 3 -13 55 c-45 177 -184 351 -345 428 -207 100 -432 92 -629
-24 -79 -46 -174 -140 -222 -219 -35 -57 -88 -196 -88 -229 0 -14 -72 -16
-725 -16 -399 0 -725 2 -725 4 0 3 13 26 30 53 16 26 40 75 52 108 22 59 22
66 28 762 l5 701 25 27 c53 57 28 55 698 55 579 0 624 1 694 19 148 38 225 92
384 266 201 220 213 224 652 224 253 1 330 -2 356 -13z m-2140 -164 c53 -82
96 -152 96 -155 0 -4 -106 -7 -236 -7 l-235 0 138 154 c76 85 139 155 139 155
1 1 45 -66 98 -147z m1402 -1663 c146 -27 276 -125 344 -261 65 -131 114 -118
-435 -118 -261 0 -475 2 -475 5 0 15 47 127 68 160 42 66 122 136 197 172 108
51 190 62 301 42z"/>
<path d="M1971 3629 c-50 -15 -124 -95 -140 -152 -42 -147 64 -287 216 -287
98 1 173 49 209 135 19 46 21 126 4 170 -42 111 -167 168 -289 134z m113 -175
c19 -18 21 -65 4 -82 -28 -28 -98 -1 -98 37 0 50 61 79 94 45z"/>
<path d="M3462 2269 c-239 -29 -424 -276 -384 -515 28 -171 143 -307 308 -365
48 -17 77 -20 159 -17 87 3 109 8 168 35 76 36 166 116 204 181 149 254 17
590 -261 666 -71 20 -121 23 -194 15z m178 -190 c96 -43 159 -132 168 -235 20
-250 -269 -399 -464 -239 -154 127 -123 379 58 469 67 34 170 36 238 5z"/>
<path d="M1859 1977 c-46 -35 -50 -88 -9 -128 l29 -30 376 3 377 3 19 24 c27
33 25 86 -6 116 l-24 25 -373 0 c-277 -1 -377 -4 -389 -13z"/>
<path d="M1883 1533 c-31 -6 -63 -50 -63 -85 0 -17 10 -39 25 -53 l24 -25 379
0 379 0 21 23 c31 33 29 87 -4 118 l-26 24 -356 1 c-196 1 -367 0 -379 -3z"/>
<path d="M1864 1068 c-24 -11 -44 -48 -44 -79 0 -11 13 -34 29 -50 l29 -29
372 0 371 0 24 25 c17 16 25 35 25 60 0 25 -8 44 -25 60 l-24 25 -368 -1
c-232 0 -376 -4 -389 -11z"/>
</g>
</svg>
